<?xml version="1.0" encoding="UTF-8"?>
<svg version="1.1" xmlns="http://www.w3.org/2000/svg" width="1024" height="1024">
<path d="M0 0 C2.34259421 -0.00346234 4.68518679 -0.00823075 7.027776 -0.01418173 C13.42496297 -0.02664253 19.82201474 -0.02054373 26.21920204 -0.01122308 C32.42266414 -0.00363631 38.62611339 -0.01314068 44.82957175 -0.02066517 C58.29184321 -0.03641787 71.75407182 -0.03511081 85.2163473 -0.02642844 C97.0002669 -0.01886635 108.78417082 -0.01691882 120.56809235 -0.02049637 C121.74293551 -0.0208401 121.74293551 -0.0208401 122.94151288 -0.02119078 C126.12135057 -0.02212488 129.30118825 -0.02308009 132.48102592 -0.02407007 C162.28344215 -0.0332377 192.08583118 -0.02494221 221.8882432 -0.00877938 C248.32795553 0.0054508 274.76762449 0.00418715 301.20733643 -0.01016235 C330.95100674 -0.02625126 360.69465302 -0.03258184 390.43832707 -0.02332556 C393.61343844 -0.0223635 396.78854982 -0.02142497 399.96366119 -0.02049637 C401.13624582 -0.02014052 401.13624582 -0.02014052 402.33251902 -0.01977748 C414.10218676 -0.01637482 425.87183706 -0.02033776 437.64150238 -0.02793503 C451.03640178 -0.03653857 464.43125184 -0.03431392 477.82614514 -0.0180928 C484.65404416 -0.01009546 491.48185025 -0.00707269 498.3097496 -0.01704025 C504.57206243 -0.02604348 510.83420706 -0.02096229 517.09650484 -0.0051076 C519.35005495 -0.00178342 521.60361956 -0.00339988 523.85716018 -0.01073496 C559.26611918 -0.11705794 588.47764531 6.8170338 614.27960205 32.06845093 C637.51963926 56.40505001 641.69666461 86.48671944 641.66722107 118.5838623 C641.66909162 120.52417192 641.6713933 122.46448116 641.67408639 124.40478981 C641.68018061 129.71307214 641.68007361 135.02133867 641.67889202 140.3296237 C641.67868741 146.06396443 641.68421252 151.79830017 641.68894958 157.53263855 C641.69724368 168.75863203 641.70000387 179.98462026 641.70056196 191.21061654 C641.70103772 200.33918167 641.70309544 209.46774508 641.70626259 218.59630966 C641.71363433 240.28628352 641.71978777 261.9762559 641.71926403 283.66623116 C641.71924845 284.35921221 641.71923287 285.05219327 641.71921682 285.76617376 C641.71913372 289.27811522 641.71903468 292.79005669 641.71893211 296.30199815 C641.7189022 297.34813558 641.7189022 297.34813558 641.71887167 298.4154071 C641.71883124 299.82576944 641.71878944 301.23613177 641.71874628 302.64649411 C641.71813377 324.58077281 641.72563721 346.51503603 641.73931885 368.4493103 C641.75470107 393.11983539 641.76327112 417.79034993 641.76235563 442.46088016 C641.76202409 455.51303172 641.76475211 468.56516583 641.77553368 481.61731339 C641.78465535 492.73090205 641.78680025 503.84446537 641.78002425 514.95805617 C641.77676745 520.62303266 641.77667194 526.28796054 641.7853775 531.95293236 C641.79328065 537.14941264 641.7917724 542.34580609 641.78309337 547.54228435 C641.78156674 549.41168212 641.78334256 551.2810865 641.78895345 553.15047647 C641.81425278 562.18546836 641.6245554 571.11529868 640.66258717 580.10531425 C640.58769036 580.81702286 640.51279355 581.52873147 640.43562714 582.26200701 C639.51298863 589.96229812 637.18264128 597.12093635 634.5335083 604.38095093 C634.16354736 605.42766968 633.79358643 606.47438843 633.41241455 607.55282593 C624.11963274 631.86197142 604.40306351 649.87173514 581.12481689 660.69735718 C562.45812852 668.88780025 542.77927519 668.52990187 522.78649902 668.5146637 C520.46115766 668.51653342 518.13581662 668.51883476 515.81047606 668.52152902 C509.43798688 668.52763341 503.06551083 668.52751503 496.69301939 668.52633464 C490.5206366 668.52566441 484.34825693 668.53064584 478.17587603 668.53494753 C463.99750671 668.54460317 449.81914102 668.5474311 435.6407688 668.54800459 C424.6896272 668.54846465 413.73848702 668.55052566 402.78734589 668.55370522 C399.63175893 668.5546028 396.47617197 668.55549261 393.32058501 668.55638009 C392.53603515 668.55660114 391.75148529 668.55682219 390.94316118 668.55704994 C368.88461456 668.56320144 346.82606843 668.56715077 324.7675209 668.56670666 C323.9363834 668.56669108 323.10524591 668.5666755 322.24892242 668.56665945 C318.03664595 668.56657635 313.82436947 668.5664773 309.612093 668.56637474 C308.77556227 668.5663548 307.93903153 668.56633485 307.07715138 668.5663143 C305.38548385 668.56627386 303.69381632 668.56623207 302.00214879 668.56618891 C275.68414591 668.56557619 249.36615593 668.57308317 223.04815674 668.58676147 C193.46059205 668.60213285 163.87303584 668.61072708 134.28546691 668.60979825 C131.12862253 668.60972362 127.97177816 668.60967492 124.81493378 668.60964394 C124.03767368 668.60963228 123.26041358 668.60962063 122.45960014 668.60960862 C109.97017676 668.60957789 97.48076459 668.6159543 84.99134454 668.6245762 C72.43276124 668.63306637 59.8741943 668.63403194 47.31560972 668.62746688 C40.51673412 668.62410404 33.71790145 668.62413938 26.91902924 668.63282013 C20.68888886 668.6406928 14.45882111 668.63924578 8.22868249 668.630536 C5.98112637 668.62900272 3.73356481 668.63081062 1.48601511 668.63639607 C-29.78647553 668.70893307 -60.32886587 664.34093663 -83.4664917 641.38095093 C-84.3327417 640.55595093 -85.1989917 639.73095093 -86.0914917 638.88095093 C-86.8752417 638.05595093 -87.6589917 637.23095093 -88.4664917 636.38095093 C-89.33660889 635.52050171 -89.33660889 635.52050171 -90.2243042 634.64266968 C-102.31222318 622.05701286 -109.2221507 605.30917327 -112.7164917 588.44345093 C-112.87996094 587.65744507 -113.04343018 586.87143921 -113.21185303 586.06161499 C-115.79576619 572.53982516 -115.61292206 558.78277666 -115.60020447 545.07592773 C-115.60207588 543.14896582 -115.6043779 541.22200429 -115.60706979 539.29504335 C-115.6131531 534.03302474 -115.61305832 528.7710221 -115.61187541 523.50900078 C-115.61167053 517.82108697 -115.61719841 512.13317817 -115.62193298 506.44526672 C-115.63022047 495.31513554 -115.63298694 484.18500964 -115.63354536 473.05487563 C-115.63402132 464.00547922 -115.63608003 454.95608455 -115.63924599 445.90668869 C-115.64661597 424.4019221 -115.6527714 402.89715723 -115.65224743 381.3923893 C-115.65223185 380.70562127 -115.65221627 380.01885325 -115.65220022 379.31127408 C-115.65211712 375.83088454 -115.65201808 372.350495 -115.65191551 368.87010546 C-115.65189557 368.17895455 -115.65187562 367.48780364 -115.65185507 366.77570877 C-115.65181464 365.37803625 -115.65177284 363.98036374 -115.65172968 362.58269122 C-115.6511169 340.83607579 -115.65862638 319.08947596 -115.67230225 297.34286499 C-115.68767992 272.88036519 -115.69625484 248.41787742 -115.69533902 223.95537221 C-115.69500739 211.01397898 -115.69773978 198.07260334 -115.70851707 185.13121414 C-115.71763274 174.11496685 -115.71978846 163.09874514 -115.71300765 152.0824957 C-115.70974817 146.46635935 -115.70966517 140.85027205 -115.7183609 135.2341404 C-115.7262518 130.08472165 -115.72476813 124.93539063 -115.71607677 119.78597395 C-115.7145475 117.93147629 -115.71633611 116.07697199 -115.72193684 114.22248216 C-115.75329444 103.09517636 -115.13985273 92.39181665 -113.4664917 81.38095093 C-113.30690119 80.30126089 -113.14731069 79.22157085 -112.98288411 78.10916293 C-112.58125107 75.46172307 -112.12643453 72.82907882 -111.6539917 70.19345093 C-111.51412842 69.3059314 -111.37426514 68.41841187 -111.23016357 67.5039978 C-110.21010411 61.86192615 -108.90079836 59.24917589 -104.4664917 55.38095093 C-103.29781055 53.52419234 -102.19352242 51.62548197 -101.1539917 49.69345093 C-97.78492482 43.73166736 -93.87366995 38.60190276 -89.4664917 33.38095093 C-89.01016357 32.77895874 -88.55383545 32.17696655 -88.0836792 31.55673218 C-73.66059425 13.03127276 -48.38592591 3.77966112 -25.99050897 0.65814802 C-17.37637996 -0.2878881 -8.65257019 -0.02804167 0 0 Z " fill="#39319A" transform="translate(248.46649169921875,177.61904907226563)"/>
<path d="M0 0 C2.34259421 -0.00346234 4.68518679 -0.00823075 7.027776 -0.01418173 C13.42496297 -0.02664253 19.82201474 -0.02054373 26.21920204 -0.01122308 C32.42266414 -0.00363631 38.62611339 -0.01314068 44.82957175 -0.02066517 C58.29184321 -0.03641787 71.75407182 -0.03511081 85.2163473 -0.02642844 C97.0002669 -0.01886635 108.78417082 -0.01691882 120.56809235 -0.02049637 C121.74293551 -0.0208401 121.74293551 -0.0208401 122.94151288 -0.02119078 C126.12135057 -0.02212488 129.30118825 -0.02308009 132.48102592 -0.02407007 C162.28344215 -0.0332377 192.08583118 -0.02494221 221.8882432 -0.00877938 C248.32795553 0.0054508 274.76762449 0.00418715 301.20733643 -0.01016235 C330.95100674 -0.02625126 360.69465302 -0.03258184 390.43832707 -0.02332556 C393.61343844 -0.0223635 396.78854982 -0.02142497 399.96366119 -0.02049637 C401.13624582 -0.02014052 401.13624582 -0.02014052 402.33251902 -0.01977748 C414.10218676 -0.01637482 425.87183706 -0.02033776 437.64150238 -0.02793503 C451.03640178 -0.03653857 464.43125184 -0.03431392 477.82614514 -0.0180928 C484.65404416 -0.01009546 491.48185025 -0.00707269 498.3097496 -0.01704025 C504.57206243 -0.02604348 510.83420706 -0.02096229 517.09650484 -0.0051076 C519.35005495 -0.00178342 521.60361956 -0.00339988 523.85716018 -0.01073496 C559.26611918 -0.11705794 588.47764531 6.8170338 614.27960205 32.06845093 C635.40868973 54.19449708 641.71766001 82.27544523 641.66290283 111.92318726 C641.66465515 113.1133847 641.66640747 114.30358215 641.66821289 115.52984619 C641.67257812 119.42424013 641.66971325 123.31858786 641.6663208 127.21298218 C641.66654407 129.93675269 641.66796493 132.6605224 641.66921997 135.3842926 C641.67103102 141.07385755 641.66866214 146.76340945 641.66387939 152.45297241 C641.65842571 159.01619628 641.66021173 165.57938914 641.6657058 172.14261228 C641.67025174 177.80151821 641.67088062 183.46041484 641.66826713 189.119322 C641.66671419 192.48906156 641.6664838 195.85878656 641.66980362 199.22852516 C641.67234547 202.98093385 641.66846844 206.733283 641.66290283 210.48568726 C641.66492706 211.59180862 641.66695129 212.69792999 641.66903687 213.83757019 C641.65451493 219.12770213 641.46348056 224.16963885 640.5335083 229.38095093 C640.2035083 229.38095093 639.8735083 229.38095093 639.5335083 229.38095093 C639.30276611 228.29298218 639.07202393 227.20501343 638.83428955 226.08407593 C632.62276562 197.70104253 616.88124257 172.68885987 592.19146729 156.77865601 C568.81632197 142.25723287 545.5978273 137.92092547 518.55499268 137.94515991 C516.51932226 137.93615829 514.4836569 137.92594464 512.44799805 137.91462708 C506.97746455 137.8883912 501.50707221 137.88110559 496.03648186 137.87917972 C492.61138856 137.87703474 489.18633026 137.87060708 485.76124573 137.86268806 C473.79338328 137.83503923 461.82562039 137.82267148 449.85772705 137.82504272 C438.72724768 137.82685001 427.59720213 137.79506986 416.46683264 137.74781173 C406.87826165 137.70855949 397.28983258 137.69249174 387.70118189 137.69440895 C381.9877605 137.6951721 376.27472691 137.68671525 370.56138611 137.6548748 C365.19628195 137.6257808 359.83193577 137.62562753 354.4668045 137.6474247 C352.50365843 137.65055428 350.54046462 137.64352047 348.57740021 137.62534332 C334.01895912 137.41054454 334.01895912 137.41054454 321.5335083 144.38095093 C320.54479736 145.17114624 319.55608643 145.96134155 318.53741455 146.77548218 C307.06146652 158.14126111 299.33651171 171.38685515 293.5335083 186.38095093 C292.70331102 188.31979676 291.87003911 190.25732931 291.0335083 192.19345093 C288.74597834 197.68936956 286.78159307 203.274617 284.83209229 208.89633179 C283.20160976 213.5698975 281.45656286 218.16889221 279.5960083 222.75595093 C273.72386304 237.23751749 268.56925076 251.98899897 263.44708252 266.74911499 C262.5104404 269.44740523 261.57110672 272.14474611 260.63116455 274.84188843 C259.30082992 278.6601345 257.97289016 282.4792011 256.64678955 286.29891968 C255.16979177 290.55320204 253.68695492 294.80540382 252.20147705 299.05673218 C248.11397504 310.77587172 244.09942337 322.49172373 240.5335083 334.38095093 C240.295354 335.1719519 240.05719971 335.96295288 239.81182861 336.77792358 C238.51887441 341.07384178 237.23114665 345.37128457 235.9475708 349.67001343 C234.77123269 353.60216372 233.56546625 357.52442958 232.3460083 361.44345093 C230.84463152 366.27775956 229.49815417 371.13689501 228.2444458 376.04110718 C227.55229314 378.31912609 226.66336744 380.29022868 225.5335083 382.38095093 C206.27404427 378.04378029 187.42921436 371.78102448 168.7522583 365.43173218 C164.15833285 363.93201622 159.51245656 362.64117031 154.84991455 361.37313843 C152.47417178 360.6623744 150.1285553 359.84774865 147.81011963 358.96786499 C143.85340135 357.47251803 139.84606229 356.19908298 135.7913208 354.99813843 C134.31053355 354.55323612 132.82982369 354.10807614 131.34918213 353.66268921 C130.58360992 353.43325623 129.81803772 353.20382324 129.02926636 352.96743774 C115.9695937 349.04810701 103.02825226 344.92969604 90.17144775 340.38339233 C83.59845899 338.06711094 77.00766499 335.95409452 70.30401611 334.05136108 C65.85300055 332.78609219 61.4744603 331.37738389 57.0960083 329.88095093 C50.74973727 327.72484603 44.35288324 325.8820143 37.87359619 324.1680603 C33.76864504 323.06731213 29.83631124 321.77225083 25.86676025 320.23788452 C19.41396716 317.86796679 12.7956576 315.93220788 6.23858643 313.87313843 C-4.57768779 310.43828028 -15.29575703 306.77395418 -25.4039917 301.56845093 C-26.07019531 301.22862183 -26.73639893 300.88879272 -27.42279053 300.53866577 C-29.44398964 299.49823346 -31.45669787 298.44322776 -33.4664917 297.38095093 C-34.08201904 297.05723511 -34.69754639 296.73351929 -35.33172607 296.3999939 C-46.93018397 290.2340029 -57.05449307 282.63010223 -66.8102417 273.84579468 C-68.30730794 272.52173845 -69.88359394 271.28860128 -71.4664917 270.06845093 C-72.4564917 269.23313843 -72.4564917 269.23313843 -73.4664917 268.38095093 C-73.4664917 267.72095093 -73.4664917 267.06095093 -73.4664917 266.38095093 C-74.4564917 266.05095093 -75.4464917 265.72095093 -76.4664917 265.38095093 C-78.44696045 263.22860718 -78.44696045 263.22860718 -80.6539917 260.44345093 C-81.45321045 259.43669312 -82.2524292 258.4299353 -83.0758667 257.39266968 C-83.86477295 256.39880249 -84.6536792 255.4049353 -85.4664917 254.38095093 C-86.13164795 253.60364624 -86.7968042 252.82634155 -87.4821167 252.02548218 C-99.1820886 238.20905195 -107.78745468 221.21080303 -112.70477295 203.86532593 C-113.22934512 201.46184198 -113.22934512 201.46184198 -114.4664917 200.38095093 C-115.39271489 194.5624643 -115.61495041 188.88876031 -115.61175537 183.00595093 C-115.61511398 182.1038942 -115.6184726 181.20183746 -115.62193298 180.27244568 C-115.63138196 177.30859982 -115.63338343 174.34481089 -115.63446045 171.38095093 C-115.6376786 169.30079119 -115.64104308 167.22063168 -115.64454651 165.14047241 C-115.65052367 160.78296383 -115.652388 156.42547504 -115.65179443 152.06796265 C-115.65169321 146.52523565 -115.66531065 140.9826379 -115.68256664 135.43994141 C-115.69377197 131.14154496 -115.695711 126.84317884 -115.69518471 122.54476929 C-115.69635335 120.50374916 -115.70071123 118.46272795 -115.70851707 116.42172241 C-115.74962366 104.55773288 -115.29927558 93.11491328 -113.4664917 81.38095093 C-113.30687958 80.30448807 -113.14726746 79.22802521 -112.9828186 78.11894226 C-112.58216348 75.46799097 -112.12702 72.832345 -111.6539917 70.19345093 C-111.51412842 69.3059314 -111.37426514 68.41841187 -111.23016357 67.5039978 C-110.21010411 61.86192615 -108.90079836 59.24917589 -104.4664917 55.38095093 C-103.29781055 53.52419234 -102.19352242 51.62548197 -101.1539917 49.69345093 C-97.78492482 43.73166736 -93.87366995 38.60190276 -89.4664917 33.38095093 C-89.01016357 32.77895874 -88.55383545 32.17696655 -88.0836792 31.55673218 C-73.66059425 13.03127276 -48.38592591 3.77966112 -25.99050897 0.65814802 C-17.37637996 -0.2878881 -8.65257019 -0.02804167 0 0 Z " fill="#6E68C4" transform="translate(248.46649169921875,177.61904907226563)"/>
<path d="M0 0 C1.40091443 0.00056582 2.80182944 0.00024423 4.20274353 -0.00088501 C7.96223794 -0.00145287 11.72160164 0.01020833 15.48106599 0.02426291 C19.42614702 0.03686599 23.37123189 0.03794824 27.31632996 0.04031372 C34.76744507 0.0465006 42.21850066 0.06287313 49.6695897 0.0830127 C58.16065229 0.10545924 66.6517179 0.11638703 75.14280283 0.12640357 C92.59157406 0.14724222 110.04028755 0.18236317 127.48901367 0.22705078 C127.53487851 34.18966358 127.57007712 68.15226862 127.59114433 102.11490556 C127.59364548 106.13243058 127.59623415 110.14995554 127.59887695 114.16748047 C127.59966388 115.36711115 127.59966388 115.36711115 127.60046671 116.59097679 C127.6091487 129.50864579 127.62490641 142.42629683 127.64331926 155.3439552 C127.66207991 168.61716666 127.67314338 181.89036877 127.67719066 195.16359293 C127.67992299 203.34149342 127.68852526 211.51934313 127.70484661 219.69722797 C127.71548975 225.31939079 127.71859788 230.94152769 127.71601643 236.56369983 C127.71474642 239.79829456 127.71769623 243.03278361 127.72742462 246.26736641 C127.78403885 266.07554509 127.33178969 284.47425353 120.48901367 303.22705078 C120.11905273 304.27376953 119.7490918 305.32048828 119.36791992 306.39892578 C110.07513811 330.70807127 90.35856888 348.71783499 67.08032227 359.54345703 C50.60702636 366.77149822 33.39436767 367.38425473 15.65765381 367.3473053 C14.08399763 367.34774217 12.51034152 367.3486192 10.9366858 367.34989446 C6.64259209 367.35211667 2.34852361 367.34814949 -1.94556689 367.3431164 C-6.58752611 367.33877923 -11.22948402 367.34026064 -15.8714447 367.34101868 C-23.90396713 367.34154185 -31.9364814 367.33841669 -39.96900177 367.33278084 C-51.58253532 367.32463777 -63.19606494 367.32204774 -74.80960104 367.32079285 C-93.65391269 367.31860674 -112.49822 367.31195861 -131.3425293 367.30249023 C-149.64298481 367.29330471 -167.94343913 367.28622945 -186.24389648 367.28198242 C-187.37281513 367.2817197 -188.50173377 367.28145697 -189.66486207 367.28118629 C-195.32857745 367.27988121 -200.99229284 367.27861751 -206.65600824 367.27737439 C-253.60767061 367.2670155 -300.55932824 367.24940919 -347.51098633 367.22705078 C-346.88130465 362.07922296 -346.15876448 357.00416776 -345.20629883 351.90283203 C-345.08165253 351.23470993 -344.95700623 350.56658783 -344.82858276 349.8782196 C-344.56587212 348.47384612 -344.30195251 347.0696983 -344.03686523 345.66577148 C-343.64032088 343.56254079 -343.24922096 341.45834962 -342.85864258 339.35400391 C-341.28257416 330.92639349 -339.48479765 322.57101372 -337.51098633 314.22705078 C-334.8193661 302.37190751 -332.33212607 290.48466271 -330.07348633 278.53955078 C-327.72177975 266.12654219 -325.10384709 253.78124135 -322.42358398 241.43554688 C-320.58705824 232.97269604 -318.76690362 224.50630803 -316.94848633 216.03955078 C-316.75245819 215.12719666 -316.55643005 214.21484253 -316.35446167 213.27484131 C-313.89724406 201.82850711 -311.50153967 190.37425977 -309.23974609 178.88745117 C-307.64184659 170.79778884 -305.91798832 162.73864523 -304.17138672 154.67993164 C-302.32067364 146.09924719 -300.52784508 137.50738275 -298.75317383 128.91064453 C-298.50848358 127.72630829 -298.26379333 126.54197205 -298.01168823 125.32174683 C-296.76889319 119.30423449 -295.52931585 113.28608054 -294.29370117 107.26708984 C-293.82976999 105.01804603 -293.36574403 102.76902176 -292.90161133 100.52001953 C-292.69035614 99.48566269 -292.47910095 98.45130585 -292.26144409 97.38560486 C-291.20104863 92.26005894 -290.03546336 87.2349841 -288.51098633 82.22705078 C-281.64929477 82.10554441 -274.95178606 82.4424208 -268.12817383 83.14501953 C-267.14033905 83.24241928 -266.15250427 83.33981903 -265.13473511 83.44017029 C-263.00079887 83.65084579 -260.86706531 83.8635826 -258.73352051 84.07818604 C-252.9338605 84.66094369 -247.13255975 85.22689391 -241.33129883 85.79345703 C-240.12199707 85.91182922 -238.91269531 86.03020142 -237.66674805 86.15216064 C-224.20510364 87.46329924 -210.73379111 88.66205562 -197.26098633 89.85205078 C-192.56825192 90.26712119 -187.87554195 90.68246641 -183.18286133 91.09814453 C-182.07560699 91.19618378 -180.96835266 91.29422302 -179.82754517 91.39523315 C-170.71899817 92.20384915 -161.61430001 93.04923178 -152.51098633 93.91455078 C-141.58322495 94.95318389 -130.65132007 95.91065204 -119.71020508 96.79736328 C-114.30704342 97.23687958 -108.90887255 97.7273066 -103.51098633 98.22705078 C-103.55247803 97.56801758 -103.59396973 96.90898438 -103.63671875 96.22998047 C-104.80254758 73.92119303 -93.84660726 49.14906284 -79.63598633 32.35205078 C-58.1484105 9.71563427 -30.69518989 -0.17229034 0 0 Z " fill="#6E68C4" transform="translate(762.510986328125,478.77294921875)"/>
<path d="M0 0 C31.70332727 -0.9782741 60.85626694 5.39434252 84.54345703 27.6015625 C105.35414705 47.58205738 115.22696049 73.51479902 116.09192276 102.03046608 C116.12855437 105.2014754 116.13525153 108.37102282 116.12939453 111.54223633 C116.13114685 112.73243378 116.13289917 113.92263123 116.13470459 115.14889526 C116.13906982 119.0432892 116.13620495 122.93763694 116.1328125 126.83203125 C116.13303576 129.55580176 116.13445663 132.27957147 116.13571167 135.00334167 C116.13752272 140.69290662 116.13515384 146.38245852 116.13037109 152.07202148 C116.12491741 158.63524536 116.12670343 165.19843821 116.1321975 171.76166135 C116.13674344 177.42056728 116.13737232 183.07946391 116.13475883 188.73837107 C116.13320589 192.10811063 116.1329755 195.47783563 116.13629532 198.84757423 C116.13883717 202.59998293 116.13496014 206.35233207 116.12939453 210.10473633 C116.13141876 211.2108577 116.13344299 212.31697906 116.13552856 213.45661926 C116.12100663 218.7467512 115.92997226 223.78868792 115 229 C114.67 229 114.34 229 114 229 C113.76925781 227.91203125 113.53851562 226.8240625 113.30078125 225.703125 C107.08925732 197.3200916 91.34773427 172.30790894 66.65795898 156.39770508 C42.60290141 141.45389767 18.8075065 137.53310524 -8.96878052 137.60127258 C-11.24470949 137.59582301 -13.52063565 137.58906727 -15.79655731 137.58113068 C-22.00398491 137.56321271 -28.21129223 137.56364921 -34.41873956 137.56726015 C-40.43946073 137.56782218 -46.46014048 137.55430036 -52.48084335 137.54117843 C-64.78406339 137.51484382 -77.08726091 137.50223459 -89.39050674 137.49761391 C-101.56152946 137.49299743 -113.73252102 137.48217862 -125.90353012 137.46318626 C-126.66201084 137.46200614 -127.42049156 137.46082601 -128.20195655 137.45961012 C-132.05434005 137.45358419 -135.90672336 137.44744852 -139.75910662 137.44127061 C-167.00231937 137.39777887 -194.24553136 137.3680275 -221.48876953 137.34643555 C-247.94516111 137.32543558 -274.40153416 137.29816269 -300.85791016 137.26245117 C-301.67428532 137.26135169 -302.49066049 137.26025222 -303.3317743 137.25911942 C-311.53060447 137.24807051 -319.72943445 137.23689465 -327.92826431 137.2256258 C-344.62827184 137.20267544 -361.32828045 137.18057205 -378.02828979 137.15898132 C-378.79602651 137.1579877 -379.56376322 137.15699409 -380.35476468 137.15597036 C-431.56982815 137.08978391 -482.78491272 137.04339952 -534 137 C-531.84597846 125.38558411 -524.98027437 115.11886787 -515.48046875 108.15234375 C-508.00289436 103.47742397 -500.24589225 100.82634447 -491.64160156 99.1940918 C-490.84660248 99.03748077 -490.05160339 98.88086975 -489.23251343 98.71951294 C-486.61975162 98.20637676 -484.00523135 97.70286384 -481.390625 97.19921875 C-479.54086381 96.83740751 -477.69123645 96.47491152 -475.84173584 96.11177063 C-470.96776995 95.15634693 -466.09232466 94.20871209 -461.21643066 93.26318359 C-452.564423 91.58412231 -443.91497841 89.89189011 -435.265625 88.19921875 C-434.32732157 88.01582947 -433.38901814 87.83244019 -432.42228127 87.64349365 C-420.39760102 85.29138487 -408.40179482 82.8492226 -396.42991638 80.24012756 C-380.80609785 76.84744255 -365.11650427 73.77110453 -349.43705368 70.64804459 C-345.88095462 69.93935329 -342.32519272 69.22897777 -338.76941395 68.51868153 C-318.36997459 64.44431685 -297.96952462 60.37380336 -277.53637695 56.47119141 C-269.76645084 54.98030319 -262.03184152 53.36717619 -254.3046875 51.66796875 C-241.01003794 48.74907901 -227.66758725 46.08031446 -214.31837845 43.42422867 C-211.39389449 42.84200403 -208.46972024 42.25823121 -205.54552746 41.67454624 C-172.92728645 35.16459253 -140.29711314 28.71446451 -107.66889858 22.25473595 C-82.48449857 17.26866482 -57.30043189 12.28118812 -32.125 7.25 C-30.44967697 6.91568466 -30.44967697 6.91568466 -28.74050903 6.57461548 C-25.72522585 5.97270029 -22.71021072 5.369465 -19.6953125 4.765625 C-18.8497731 4.59691391 -18.0042337 4.42820282 -17.1330719 4.25437927 C-13.04326956 3.44600702 -13.04326956 3.44600702 -8.99557495 2.45452881 C-6.00045081 1.77233433 -3.05774524 1.94119721 0 2 C0 1.34 0 0.68 0 0 Z " fill="#F1F0FD" transform="translate(774,178)"/>
<path d="M0 0 C1.42333051 0.00061444 2.84666163 0.00034267 4.26999187 -0.00073051 C8.04007158 -0.00117722 11.81002118 0.01031179 15.5800705 0.02449036 C19.13350276 0.03598313 22.68690531 0.03642214 26.24035645 0.0378418 C36.59409237 0.048286 46.94780472 0.07620853 57.30151367 0.10205078 C80.46338867 0.14330078 103.62526367 0.18455078 127.48901367 0.22705078 C127.48901367 65.56705078 127.48901367 130.90705078 127.48901367 198.22705078 C92.90088867 198.31986328 92.90088867 198.31986328 57.61401367 198.41455078 C46.73972412 198.4555188 46.73972412 198.4555188 35.64575195 198.49731445 C26.71337891 198.51086426 26.71337891 198.51086426 22.5163269 198.51338196 C19.61871279 198.5161487 16.72126778 198.52727638 13.82369995 198.54377747 C-12.37034681 198.68622891 -35.77258755 197.83059138 -58.51098633 183.22705078 C-59.48293945 182.61216797 -60.45489258 181.99728516 -61.45629883 181.36376953 C-75.57333914 171.48906231 -85.52209244 158.31145687 -93.51098633 143.22705078 C-93.99696289 142.32212891 -94.48293945 141.41720703 -94.98364258 140.48486328 C-101.70799616 126.95390103 -102.90337343 113.49681394 -103.01098633 98.66455078 C-103.02142975 97.97270691 -103.03187317 97.28086304 -103.04263306 96.5680542 C-103.32813744 72.30054061 -94.03988855 47.98603981 -77.44067383 30.08642578 C-55.64126848 9.08133075 -29.9374504 -0.16784651 0 0 Z " fill="#B3B4E5" transform="translate(762.510986328125,478.77294921875)"/>
<path d="M0 0 C2.27918844 -0.00131052 4.55837642 -0.00394146 6.83756202 -0.0077675 C13.0586759 -0.014436 19.27963312 -0.00253009 25.50072706 0.01256669 C31.53321621 0.02423701 37.56568926 0.02168059 43.5981852 0.01952116 C55.92663858 0.01559337 68.25504346 0.02555056 80.58348274 0.04357338 C92.78043928 0.06135806 104.9773756 0.07287799 117.17434502 0.07613182 C118.31424873 0.07644115 118.31424873 0.07644115 119.4771808 0.07675673 C123.33691314 0.0777718 127.1966455 0.07867593 131.05637788 0.07953735 C158.35562774 0.08582934 185.65485127 0.10601554 212.9540863 0.13444519 C239.46580363 0.16202274 265.97751374 0.18326168 292.48924255 0.19596863 C293.3072433 0.19636321 294.12524406 0.19675778 294.96803271 0.19716432 C303.18314568 0.20112007 311.3982587 0.20494748 319.61337177 0.2086809 C336.34673025 0.21628841 353.08008825 0.22475217 369.81344604 0.23373413 C370.58272553 0.234146 371.35200502 0.23455787 372.14459601 0.23498222 C423.46757852 0.26255849 474.79054576 0.31015369 526.11351013 0.36076355 C526.11351013 1.02076355 526.11351013 1.68076355 526.11351013 2.36076355 C525.5353656 2.47033386 524.95722107 2.57990417 524.36155701 2.6927948 C511.23098852 5.18709584 498.1151936 7.74802157 485.0114994 10.37936211 C467.84878658 13.8247089 450.67955795 17.23694362 433.50804138 20.6381073 C432.35086987 20.86733509 431.19369835 21.09656288 430.00146103 21.33273697 C420.44351549 23.22602184 410.88540104 25.11845333 401.32725525 27.01072693 C371.4173263 32.93223215 341.51061363 38.8688781 311.6143856 44.8592062 C301.17911045 46.94955046 290.74173052 49.02935923 280.30412292 51.10802174 C271.21670564 52.9179003 262.13934685 54.76823009 253.07054138 56.6693573 C238.20122873 59.78225427 223.30213032 62.74541182 208.40396881 65.71632385 C204.51220667 66.49271883 200.62073325 67.27055823 196.72923279 68.04826355 C184.6365931 70.46455865 172.54365327 72.87932835 160.44841003 75.28256226 C156.90837969 75.98600716 153.3686025 76.69072091 149.82884216 77.39552307 C147.63367968 77.83190493 145.43807742 78.26601004 143.24241638 78.69987488 C136.90090474 79.95913467 130.56996863 81.25505694 124.25291443 82.63249207 C111.17451826 85.48197572 98.08126091 88.17600412 84.93659973 90.7004509 C82.33054747 91.20168802 79.7251038 91.70597004 77.11985779 92.21138 C76.25232376 92.37966372 75.38478973 92.54794743 74.4909668 92.72133064 C72.72673575 93.06365883 70.9625248 93.40609062 69.19833374 93.7486248 C64.71273236 94.6182028 60.22581679 95.47970493 55.73582458 96.32633972 C51.29716359 97.16386146 46.86307065 98.02264932 42.43119621 98.89534187 C40.77156574 99.21826345 39.11046381 99.53373218 37.44784737 99.84090996 C22.85318957 102.54384853 9.37913243 106.92084025 0.50413513 119.67326355 C-3.04121436 125.28965878 -5.63100052 131.12499889 -7.88648987 137.36076355 C-33.8629482 138.86907403 -61.86286936 132.64126945 -83.85133362 118.61857605 C-86.01251617 117.21452797 -86.01251617 117.21452797 -89.07398987 115.98576355 C-96.45871151 111.71903549 -101.28723462 103.33933649 -105.88648987 96.36076355 C-106.42531799 95.56412292 -106.96414612 94.7674823 -107.51930237 93.94670105 C-109.08924063 90.97727496 -109.55793875 88.49243312 -110.01148987 85.17326355 C-110.50487469 81.1286166 -110.50487469 81.1286166 -111.88648987 77.36076355 C-111.59869186 74.55032791 -111.22619088 71.82949911 -110.76148987 69.04826355 C-110.65578674 68.28836121 -110.55008362 67.52845886 -110.44117737 66.74552917 C-109.54621887 61.38043946 -108.03374264 59.06389122 -103.88648987 55.36076355 C-102.71780872 53.50400497 -101.61352059 51.60529459 -100.57398987 49.67326355 C-97.20492299 43.71147998 -93.29366812 38.58171538 -88.88648987 33.36076355 C-88.43016174 32.75877136 -87.97383362 32.15677917 -87.50367737 31.5365448 C-73.0680025 12.99491451 -47.79544428 3.77158471 -25.38668771 0.637125 C-16.9717913 -0.29302258 -8.45277853 -0.03644881 0 0 Z " fill="#383199" transform="translate(247.88648986816406,177.6392364501953)"/>
<path d="M0 0 C0 0.66 0 1.32 0 2 C0.96493718 1.99886084 1.92987436 1.99772168 2.92405206 1.996548 C60.10861212 1.9293042 117.29316966 1.8779375 174.47776117 1.84680401 C181.34332848 1.84306206 188.20889571 1.83917239 195.07446289 1.83520508 C195.75766249 1.8348128 196.4408621 1.83442052 197.14476472 1.83401636 C219.28171817 1.82123662 241.41864862 1.79870591 263.55558814 1.77110834 C286.95303634 1.74199236 310.35046535 1.7240089 333.74793309 1.71773452 C347.76219444 1.71361731 361.77638975 1.70061133 375.79063078 1.6762506 C385.39951094 1.66039804 395.00835694 1.65559857 404.61724923 1.65949587 C410.16181183 1.66141814 415.70625899 1.65846231 421.25080109 1.64238358 C426.32961527 1.62776306 431.40823659 1.62706171 436.48705973 1.63730332 C438.32170211 1.63856875 440.15635661 1.63478154 441.99097518 1.62535045 C458.45345087 1.54566286 470.13598713 3.56501349 482.625 15.0625 C488.84139561 21.4861088 493.24773428 29.23867138 495 38 C315.81 38 136.62 38 -48 38 C-45.67054362 26.35271811 -39.07579666 16.18891755 -29.48046875 9.15234375 C-20.54719354 3.56733144 -10.64608514 0 0 0 Z " fill="#B3B3E3" transform="translate(288,277)"/>
<path d="M0 0 C181.17 0 362.34 0 549 0 C549 0.66 549 1.32 549 2 C540.24996282 3.6039348 531.89252296 4.26197285 523 4 C523 3.67 523 3.34 523 3 C430.6 3 338.2 3 243 3 C243 2.34 243 1.68 243 1 C242.2371167 1.03029297 241.4742334 1.06058594 240.68823242 1.09179688 C221.89376499 1.80772414 203.12047613 2.08935634 184.3125 2.0625 C183.24495483 2.06105988 182.17740967 2.05961975 181.07751465 2.05813599 C173.38498694 2.04592998 165.69249919 2.02380538 158 2 C150.19323019 1.97628309 142.38647864 1.9560613 134.5796814 1.94406128 C131.48514087 1.93759948 128.39066258 1.92512079 125.29614258 1.91235352 C123.42529351 1.90872649 121.55444388 1.90537409 119.68359375 1.90234375 C118.82782745 1.89717743 117.97206116 1.89201111 117.09036255 1.88668823 C112.91207187 1.7716096 112.91207187 1.7716096 109 3 C107.22040641 3.09595989 105.43720762 3.12795755 103.6550293 3.12939453 C102.53593674 3.13254669 101.41684418 3.13569885 100.26383972 3.13894653 C99.0462648 3.1369223 97.82868988 3.13489807 96.57421875 3.1328125 C94.69365532 3.13424759 94.69365532 3.13424759 92.77510071 3.13571167 C90.11101885 3.13639378 87.44702791 3.13503745 84.78295898 3.13037109 C82.07232465 3.12584974 79.36175722 3.12576523 76.65112305 3.13037109 C72.72963499 3.1366113 68.80820964 3.13578014 64.88671875 3.1328125 C63.69141037 3.13483673 62.49610199 3.13686096 61.26457214 3.13894653 C54.2797698 3.11986362 47.40709243 2.78743559 40.45320129 2.11642456 C39.23886665 2.0587944 39.23886665 2.0587944 38 2 C37.67 2.33 37.34 2.66 37 3 C34.42983176 3.12569922 31.88796233 3.18863339 29.31640625 3.203125 C28.16035133 3.21167511 28.16035133 3.21167511 26.98094177 3.22039795 C25.34757872 3.22986067 23.71419647 3.23638696 22.08081055 3.24023438 C19.57632321 3.2499464 17.0726541 3.28095914 14.56835938 3.3125 C12.98437989 3.31902911 11.40039452 3.32427994 9.81640625 3.328125 C9.0642836 3.3404718 8.31216095 3.3528186 7.5372467 3.36553955 C5.42407227 3.35644531 5.42407227 3.35644531 2 3 C1.34 2.01 0.68 1.02 0 0 Z " fill="#3E26A0" transform="translate(225,178)"/>
<path d="M0 0 C0.33 0 0.66 0 1 0 C1.25396639 7.49200863 1.25396639 7.49200863 0.00772095 9.98478699 C-1.48828812 14.4610123 -1.30863258 18.79118183 -1.31884766 23.48168945 C-1.32889328 24.53580521 -1.3389389 25.58992096 -1.34928894 26.67597961 C-1.38014331 30.15507469 -1.39716258 33.63409272 -1.4140625 37.11328125 C-1.43277231 39.52752852 -1.45234558 41.94176924 -1.4727478 44.35600281 C-1.52409465 50.70663594 -1.56370687 57.05729028 -1.60089111 63.40802002 C-1.64091464 69.88990537 -1.69201455 76.3717023 -1.7421875 82.85351562 C-1.83897709 95.56894722 -1.92374847 108.28442951 -2 121 C-2.33 121 -2.66 121 -3 121 C-3.9180987 115.53698026 -4.14825629 110.27236996 -4.14526367 104.73852539 C-4.14862228 103.83661469 -4.1519809 102.93470398 -4.15544128 102.00546265 C-4.16490539 99.03617964 -4.16689261 96.06695338 -4.16796875 93.09765625 C-4.17118622 91.01606728 -4.17455066 88.93447853 -4.17805481 86.85289001 C-4.184036 82.48940508 -4.18589592 78.12593991 -4.18530273 73.76245117 C-4.18520157 68.21184842 -4.19881076 62.66137491 -4.21607494 57.11080265 C-4.22728124 52.80811499 -4.22921926 48.50545763 -4.22869301 44.20275688 C-4.22986182 42.15894567 -4.23422072 40.11513339 -4.24202538 38.07133675 C-4.35113997 6.52670995 -4.35113997 6.52670995 0 0 Z " fill="#7E6DDF" transform="translate(137,256)"/>
<path d="M0 0 C0.495 0.99 0.495 0.99 1 2 C0.18595703 2.50660156 0.18595703 2.50660156 -0.64453125 3.0234375 C-1.35996094 3.46945313 -2.07539063 3.91546875 -2.8125 4.375 C-3.52019531 4.81585938 -4.22789062 5.25671875 -4.95703125 5.7109375 C-6.65432039 6.78188476 -8.33014358 7.88676239 -10 9 C-10.99 9 -11.98 9 -13 9 C-13.25007813 9.59425781 -13.50015625 10.18851563 -13.7578125 10.80078125 C-15.17066153 13.30214604 -16.56911124 14.49506466 -18.875 16.1875 C-19.55304688 16.69667969 -20.23109375 17.20585937 -20.9296875 17.73046875 C-23 19 -23 19 -25.203125 19.53125 C-25.79609375 19.6859375 -26.3890625 19.840625 -27 20 C-27.28875 20.763125 -27.5775 21.52625 -27.875 22.3125 C-29.62030573 26.48184146 -33.07747714 28.03873857 -37 30 C-30.17488402 15.31467935 -13.85119672 6.85854554 0 0 Z M-38 30 C-38 33 -38 33 -40 35.1875 C-40.66 35.785625 -41.32 36.38375 -42 37 C-40.92598892 34.08482708 -40.22189824 32.22189824 -38 30 Z " fill="#3D23AB" transform="translate(193,186)"/>
<path d="M0 0 C0.33 0 0.66 0 1 0 C1.25179968 7.42809062 1.25179968 7.42809062 0.01367188 10.24023438 C-1.1536533 13.41832777 -1.31793675 16.01410892 -1.4140625 19.39453125 C-1.45273438 20.59658203 -1.49140625 21.79863281 -1.53125 23.03710938 C-1.5621875 24.28298828 -1.593125 25.52886719 -1.625 26.8125 C-1.66367188 28.07771484 -1.70234375 29.34292969 -1.7421875 30.64648438 C-1.83630657 33.76417851 -1.92194361 36.88186914 -2 40 C-2.66 40 -3.32 40 -4 40 C-4.62686144 6.94029216 -4.62686144 6.94029216 0 0 Z " fill="#7E5FE5" transform="translate(137,256)"/>
<path d="M0 0 C-0.33 0.33 -0.66 0.66 -1 1 C23.255 1.495 23.255 1.495 48 2 C48 2.33 48 2.66 48 3 C28.86 3 9.72 3 -10 3 C-10 2.34 -10 1.68 -10 1 C-3.71428571 -1.42857143 -3.71428571 -1.42857143 0 0 Z " fill="#E5E6FD" transform="translate(298,276)"/>
<path d="M0 0 C0.66 0.33 1.32 0.66 2 1 C0.18696948 5.62322782 -1.54702974 9.32425747 -5 13 C-5.66 13 -6.32 13 -7 13 C-7 13.99 -7 14.98 -7 16 C-7.66 16 -8.32 16 -9 16 C-8.50599325 11.55393927 -7.14431003 10.0544726 -4 7 C-2.54391736 4.71962651 -1.28431857 2.38516306 0 0 Z " fill="#3C27A5" transform="translate(148,226)"/>
<path d="M0 0 C0.66 0 1.32 0 2 0 C2 1.32 2 2.64 2 4 C3.98 4 5.96 4 8 4 C8 4.33 8 4.66 8 5 C-0.91 6.485 -0.91 6.485 -10 8 C-10 7.34 -10 6.68 -10 6 C-5.05 4.515 -5.05 4.515 0 3 C0 2.01 0 1.02 0 0 Z " fill="#423B8D" transform="translate(630,202)"/>
<path d="M0 0 C4.95 0 9.9 0 15 0 C15 0.66 15 1.32 15 2 C10.71 2.66 6.42 3.32 2 4 C1.34 2.68 0.68 1.36 0 0 Z " fill="#493FA0" transform="translate(759,178)"/>
<path d="M0 0 C0.66 0 1.32 0 2 0 C0.57646476 3.33136597 -1.1335313 5.27664757 -3.875 7.625 C-4.55304687 8.21539063 -5.23109375 8.80578125 -5.9296875 9.4140625 C-7.88666469 10.91318087 -9.76048537 11.98569068 -12 13 C-12 12.34 -12 11.68 -12 11 C-10.57136645 9.77071067 -9.13679759 8.54718789 -7.6640625 7.37109375 C-5.27974042 5.40654669 -3.15166871 3.21314496 -1 1 C-0.67 0.67 -0.34 0.34 0 0 Z " fill="#6E64D4" transform="translate(861,813)"/>
<path d="M0 0 C0.66 0.33 1.32 0.66 2 1 C2.875 4.3125 2.875 4.3125 3 8 C1.0625 10.4375 1.0625 10.4375 -1 12 C-2.3609623 9.2780754 -1.70366248 7.8168043 -1.0625 4.875 C-0.86785156 3.96492187 -0.67320312 3.05484375 -0.47265625 2.1171875 C-0.31667969 1.41851562 -0.16070312 0.71984375 0 0 Z " fill="#4832AA" transform="translate(138,245)"/>
<path d="M0 0 C0.33 0 0.66 0 1 0 C1.16682272 4.92127034 1.24828052 8.50343896 -1 13 C-1.66 13 -2.32 13 -3 13 C-2.88557539 11.39504433 -2.75805306 9.79101881 -2.625 8.1875 C-2.55539063 7.29417969 -2.48578125 6.40085937 -2.4140625 5.48046875 C-2 3 -2 3 0 0 Z " fill="#7756D8" transform="translate(137,256)"/>
<path d="M0 0 C0.33 0.99 0.66 1.98 1 3 C1.66 3 2.32 3 3 3 C2.855625 3.99 2.71125 4.98 2.5625 6 C1.99074821 9.99409465 1.49180166 13.99532937 1 18 C0.67 18 0.34 18 0 18 C0 12.06 0 6.12 0 0 Z " fill="#302C97" transform="translate(135,383)"/>
<path d="M0 0 C0 4.24170573 -1.83750763 6.75139708 -4.6875 9.8125 C-5.120625 10.204375 -5.55375 10.59625 -6 11 C-6.66 10.34 -7.32 9.68 -8 9 C-5.36 6.03 -2.72 3.06 0 0 Z " fill="#A6A4E9" transform="translate(685,510)"/>
<path d="M0 0 C0.33 0 0.66 0 1 0 C0.44854729 5.23880078 -0.42922093 9.97350697 -2 15 C-2.33 15 -2.66 15 -3 15 C-2.73958333 13.046875 -2.47916667 11.09375 -2.21875 9.140625 C-1.93222643 6.69541605 -1.93222643 6.69541605 -2 3 C-1.34 2.01 -0.68 1.02 0 0 Z " fill="#39348B" transform="translate(663,543)"/>
<path d="M0 0 C-0.1875 1.8125 -0.1875 1.8125 -1 4 C-3.87447123 6.09758712 -6.50304596 7.35241592 -10 8 C-8.33333333 6.33333333 -6.66666667 4.66666667 -5 3 C-4.443125 2.401875 -3.88625 1.80375 -3.3125 1.1875 C-2 0 -2 0 0 0 Z " fill="#AAA8EB" transform="translate(696,501)"/>
<path d="M0 0 C0.33 0.66 0.66 1.32 1 2 C0.06553465 4.03144641 -0.93224776 6.03533587 -2 8 C-2.99 8 -3.98 8 -5 8 C-4.45773019 4.20411134 -2.79872437 2.52788007 0 0 Z " fill="#6768D6" transform="translate(879,788)"/>
<path d="M0 0 C1.65 0 3.3 0 5 0 C5 0.66 5 1.32 5 2 C5.66 2.33 6.32 2.66 7 3 C6.67 3.99 6.34 4.98 6 6 C3.97945196 4.35830472 1.97956942 2.69088222 0 1 C0 0.67 0 0.34 0 0 Z " fill="#3D249F" transform="translate(166,819)"/>
<path d="M0 0 C0.66 0 1.32 0 2 0 C7 5.47619048 7 5.47619048 7 8 C7.66 8.33 8.32 8.66 9 9 C6 9 6 9 4.39453125 7.5390625 C3.61142578 6.59160156 3.61142578 6.59160156 2.8125 5.625 C2.28269531 4.99851562 1.75289062 4.37203125 1.20703125 3.7265625 C0 2 0 2 0 0 Z " fill="#3B23A2" transform="translate(155,807)"/>
<path d="M0 0 C0.99 0.33 1.98 0.66 3 1 C3 1.66 3 2.32 3 3 C4.32 3.66 5.64 4.32 7 5 C7 5.99 7 6.98 7 8 C4.36 6.02 1.72 4.04 -1 2 C-0.67 1.34 -0.34 0.68 0 0 Z " fill="#E0DFF6" transform="translate(849,338)"/>
<path d="M0 0 C1.12894876 0.93274109 2.25300876 1.87140122 3.375 2.8125 C4.00148438 3.33457031 4.62796875 3.85664062 5.2734375 4.39453125 C7 6 7 6 9 9 C4.5937814 7.65365543 2.56922298 5.80625626 0 2 C0 1.34 0 0.68 0 0 Z " fill="#6E6BB6" transform="translate(682,643)"/>
<path d="M0 0 C1.32 0.33 2.64 0.66 4 1 C3.67 4.3 3.34 7.6 3 11 C2.67 11 2.34 11 2 11 C1.34 7.37 0.68 3.74 0 0 Z " fill="#C3BFF0" transform="translate(886,396)"/>
<path d="M0 0 C-3.4019487 2.09350689 -6.05272412 2.17942163 -10 2 C-6.64608848 -1.35391152 -4.35183427 -1.05855428 0 0 Z " fill="#433B89" transform="translate(344,265)"/>
<path d="M0 0 C0.66 0.99 1.32 1.98 2 3 C1.360625 3.78375 0.72125 4.5675 0.0625 5.375 C-1.98142313 7.79539281 -1.98142313 7.79539281 -3 10 C-3.66 9.67 -4.32 9.34 -5 9 C-3.35 6.03 -1.7 3.06 0 0 Z " fill="#ADABEE" transform="translate(674,524)"/>
</svg>
